<mxfile host="app.diagrams.net" agent="Mozilla/5.0 (X11; Ubuntu; Linux x86_64; rv:137.0) Gecko/20100101 Firefox/137.0" version="26.2.9">
  <diagram name="Page-1" id="2a216829-ef6e-dabb-86c1-c78162f3ba2b">
    <mxGraphModel dx="3352" dy="2683" grid="1" gridSize="10" guides="1" tooltips="1" connect="1" arrows="1" fold="1" page="1" pageScale="1" pageWidth="850" pageHeight="1100" background="none" math="0" shadow="0">
      <root>
        <mxCell id="0" />
        <mxCell id="1" parent="0" />
        <mxCell id="rD__Bi_7_aJGjnoCtn_X-9" value="Gestão de Identidade e Acessos" style="html=1;overflow=block;blockSpacing=1;whiteSpace=wrap;fontSize=10;fontColor=default;align=center;spacing=3.8;strokeOpacity=100;fillOpacity=100;rounded=1;absoluteArcSize=1;arcSize=12;fillColor=#ffffff;strokeWidth=1.5;" parent="1" vertex="1">
          <mxGeometry x="-1906" y="-1435" width="180" height="30" as="geometry" />
        </mxCell>
        <mxCell id="rD__Bi_7_aJGjnoCtn_X-10" value="" style="fillColor=#000000;strokeColor=none;opacity=30;" parent="rD__Bi_7_aJGjnoCtn_X-9" vertex="1">
          <mxGeometry width="180" height="30" as="geometry" />
        </mxCell>
        <mxCell id="rD__Bi_7_aJGjnoCtn_X-11" value="BACKUP" style="html=1;overflow=block;blockSpacing=1;whiteSpace=wrap;fontSize=10;align=center;spacing=3.8;strokeOpacity=100;fillOpacity=100;rounded=1;absoluteArcSize=1;arcSize=12;fillColor=#ffffff;strokeWidth=1.5;" parent="1" vertex="1">
          <mxGeometry x="-1625" y="-1330" width="180" height="30" as="geometry" />
        </mxCell>
        <mxCell id="rD__Bi_7_aJGjnoCtn_X-12" value="" style="fillColor=#000000;strokeColor=none;opacity=30;" parent="rD__Bi_7_aJGjnoCtn_X-11" vertex="1">
          <mxGeometry width="180" height="30" as="geometry" />
        </mxCell>
        <mxCell id="rD__Bi_7_aJGjnoCtn_X-118" style="edgeStyle=orthogonalEdgeStyle;rounded=0;orthogonalLoop=1;jettySize=auto;html=1;exitX=0.5;exitY=1;exitDx=0;exitDy=0;entryX=0.5;entryY=0;entryDx=0;entryDy=0;" parent="1" source="rD__Bi_7_aJGjnoCtn_X-13" target="rD__Bi_7_aJGjnoCtn_X-68" edge="1">
          <mxGeometry relative="1" as="geometry" />
        </mxCell>
        <mxCell id="rD__Bi_7_aJGjnoCtn_X-13" value="Detacção de incidentes" style="html=1;overflow=block;blockSpacing=1;whiteSpace=wrap;fontSize=10;align=center;spacing=3.8;strokeOpacity=100;fillOpacity=100;rounded=1;absoluteArcSize=1;arcSize=12;fillColor=#ffffff;strokeWidth=1.5;" parent="1" vertex="1">
          <mxGeometry x="-990" y="-1430" width="180" height="36" as="geometry" />
        </mxCell>
        <mxCell id="rD__Bi_7_aJGjnoCtn_X-14" value="" style="fillColor=#000000;strokeColor=none;opacity=30;" parent="rD__Bi_7_aJGjnoCtn_X-13" vertex="1">
          <mxGeometry width="180" height="36" as="geometry" />
        </mxCell>
        <mxCell id="rD__Bi_7_aJGjnoCtn_X-15" value="Acesso fisico" style="html=1;overflow=block;blockSpacing=1;whiteSpace=wrap;fontSize=10;align=center;spacing=3.8;strokeOpacity=100;fillOpacity=100;rounded=1;absoluteArcSize=1;arcSize=12;fillColor=#ffffff;strokeWidth=1.5;" parent="1" vertex="1">
          <mxGeometry x="-140" y="-1335.5" width="180" height="30" as="geometry" />
        </mxCell>
        <mxCell id="rD__Bi_7_aJGjnoCtn_X-16" value="" style="fillColor=#000000;strokeColor=none;opacity=30;" parent="rD__Bi_7_aJGjnoCtn_X-15" vertex="1">
          <mxGeometry width="180" height="30" as="geometry" />
        </mxCell>
        <mxCell id="rD__Bi_7_aJGjnoCtn_X-17" value="GESTOR + TI&#xa;AVALIAM" style="html=1;overflow=block;blockSpacing=1;whiteSpace=wrap;fontSize=13.5;align=center;spacing=3.8;strokeColor=#3a414a;strokeOpacity=100;fillOpacity=100;rounded=1;absoluteArcSize=1;arcSize=12;fillColor=#ffffff;strokeWidth=1.5;" parent="1" vertex="1">
          <mxGeometry x="-1876" y="-1240" width="120" height="90" as="geometry" />
        </mxCell>
        <mxCell id="rD__Bi_7_aJGjnoCtn_X-18" value="APROVADO" style="html=1;overflow=block;blockSpacing=1;shape=mxgraph.bpmn.shape;perimeter=rhombusPerimeter;background=gateway;verticalLabelPosition=bottom;verticalAlign=top;outline=none;symbol=general;strokeColor=#3a414a;strokeOpacity=100;fillOpacity=100;rounded=1;absoluteArcSize=1;arcSize=12;fillColor=#ffffff;strokeWidth=1.5;whiteSpace=wrap;fontSize=13.5;align=center;spacing=0;" parent="1" vertex="1">
          <mxGeometry x="-1844" y="-1105" width="56" height="56" as="geometry" />
        </mxCell>
        <mxCell id="rD__Bi_7_aJGjnoCtn_X-19" value="SIM" style="html=1;overflow=block;blockSpacing=1;shape=ext;dashed=1;dashPattern=2 5;whiteSpace=wrap;fontSize=13.5;align=center;spacing=3.8;strokeColor=#3a414a;strokeOpacity=100;fillOpacity=100;rounded=1;absoluteArcSize=1;arcSize=12;fillColor=#ffffff;strokeWidth=1.5;" parent="1" vertex="1">
          <mxGeometry x="-1934" y="-1015" width="60" height="30" as="geometry" />
        </mxCell>
        <mxCell id="rD__Bi_7_aJGjnoCtn_X-20" value="NÃO" style="html=1;overflow=block;blockSpacing=1;shape=ext;dashed=1;dashPattern=2 5;whiteSpace=wrap;fontSize=13.5;align=center;spacing=3.8;strokeColor=#3a414a;strokeOpacity=100;fillOpacity=100;rounded=1;absoluteArcSize=1;arcSize=12;fillColor=#ffffff;strokeWidth=1.5;" parent="1" vertex="1">
          <mxGeometry x="-1762" y="-1015" width="60" height="30" as="geometry" />
        </mxCell>
        <mxCell id="rD__Bi_7_aJGjnoCtn_X-21" value="Rejeitado" style="html=1;overflow=block;blockSpacing=1;whiteSpace=wrap;shape=mxgraph.bpmn.shape;verticalLabelPosition=bottom;verticalAlign=top;outline=end;fontSize=13.5;align=center;spacing=0;strokeColor=#3a414a;strokeOpacity=100;fillOpacity=100;rounded=1;absoluteArcSize=1;arcSize=12;fillColor=#ffffff;strokeWidth=1.5;" parent="1" vertex="1">
          <mxGeometry x="-1754" y="-902" width="45" height="45" as="geometry" />
        </mxCell>
        <mxCell id="rD__Bi_7_aJGjnoCtn_X-22" value="Solicitação via chamados" style="html=1;overflow=block;blockSpacing=1;whiteSpace=wrap;shape=mxgraph.bpmn.shape;verticalLabelPosition=bottom;verticalAlign=top;outline=end;fontSize=13.5;align=center;spacing=0;strokeColor=#3a414a;strokeOpacity=100;fillOpacity=100;rounded=1;absoluteArcSize=1;arcSize=12;fillColor=#ffffff;strokeWidth=1.5;" parent="1" vertex="1">
          <mxGeometry x="-1839" y="-1375" width="45" height="45" as="geometry" />
        </mxCell>
        <mxCell id="rD__Bi_7_aJGjnoCtn_X-23" value="" style="html=1;jettySize=18;whiteSpace=wrap;fontSize=13;strokeColor=#5E5E5E;strokeWidth=1.5;rounded=1;arcSize=12;edgeStyle=orthogonalEdgeStyle;startArrow=none;endArrow=block;endFill=1;exitX=-0.05;exitY=0.5;exitPerimeter=0;entryX=0;entryY=0.5;entryPerimeter=0;lucidId=1qi7b8Av0Xuy;" parent="1" source="rD__Bi_7_aJGjnoCtn_X-22" target="rD__Bi_7_aJGjnoCtn_X-17" edge="1">
          <mxGeometry width="100" height="100" relative="1" as="geometry">
            <Array as="points">
              <mxPoint x="-1894" y="-1352" />
              <mxPoint x="-1894" y="-1195" />
            </Array>
          </mxGeometry>
        </mxCell>
        <mxCell id="rD__Bi_7_aJGjnoCtn_X-24" value="" style="html=1;jettySize=18;whiteSpace=wrap;fontSize=13;strokeColor=#5E5E5E;strokeWidth=1.5;rounded=1;arcSize=12;edgeStyle=orthogonalEdgeStyle;startArrow=none;endArrow=block;endFill=1;exitX=0.5;exitY=1;exitPerimeter=0;entryX=0.5;entryY=0;entryPerimeter=0;lucidId=8qi7MVqznRlG;" parent="1" source="rD__Bi_7_aJGjnoCtn_X-17" target="rD__Bi_7_aJGjnoCtn_X-18" edge="1">
          <mxGeometry width="100" height="100" relative="1" as="geometry">
            <Array as="points" />
          </mxGeometry>
        </mxCell>
        <mxCell id="rD__Bi_7_aJGjnoCtn_X-25" value="" style="html=1;jettySize=18;whiteSpace=wrap;fontSize=13;strokeColor=#5E5E5E;strokeWidth=1.5;rounded=1;arcSize=12;edgeStyle=orthogonalEdgeStyle;startArrow=none;endArrow=block;endFill=1;exitX=1.019;exitY=0.5;exitPerimeter=0;entryX=0.5;entryY=-0.025;entryPerimeter=0;lucidId=ari7bcPOTOpe;" parent="1" source="rD__Bi_7_aJGjnoCtn_X-18" target="rD__Bi_7_aJGjnoCtn_X-20" edge="1">
          <mxGeometry width="100" height="100" relative="1" as="geometry">
            <Array as="points" />
          </mxGeometry>
        </mxCell>
        <mxCell id="rD__Bi_7_aJGjnoCtn_X-26" value="" style="html=1;jettySize=18;whiteSpace=wrap;fontSize=13;strokeColor=#5E5E5E;strokeWidth=1.5;rounded=1;arcSize=12;edgeStyle=orthogonalEdgeStyle;startArrow=none;endArrow=block;endFill=1;exitX=0;exitY=0.5;exitPerimeter=0;entryX=0.5;entryY=0;entryPerimeter=0;lucidId=fri711MLL6yt;" parent="1" source="rD__Bi_7_aJGjnoCtn_X-18" target="rD__Bi_7_aJGjnoCtn_X-19" edge="1">
          <mxGeometry width="100" height="100" relative="1" as="geometry">
            <Array as="points" />
          </mxGeometry>
        </mxCell>
        <mxCell id="rD__Bi_7_aJGjnoCtn_X-27" value="" style="html=1;jettySize=18;whiteSpace=wrap;fontSize=13;strokeColor=#5E5E5E;strokeWidth=1.5;rounded=1;arcSize=12;edgeStyle=orthogonalEdgeStyle;startArrow=none;endArrow=block;endFill=1;exitX=0.5;exitY=1.05;exitPerimeter=0;entryX=0.5;entryY=0;entryPerimeter=0;lucidId=qri7VnRi8bmu;" parent="1" source="rD__Bi_7_aJGjnoCtn_X-19" target="rD__Bi_7_aJGjnoCtn_X-51" edge="1">
          <mxGeometry width="100" height="100" relative="1" as="geometry">
            <Array as="points" />
          </mxGeometry>
        </mxCell>
        <mxCell id="rD__Bi_7_aJGjnoCtn_X-28" value="" style="html=1;jettySize=18;whiteSpace=wrap;fontSize=13;strokeColor=#5E5E5E;strokeWidth=1.5;rounded=1;arcSize=12;edgeStyle=orthogonalEdgeStyle;startArrow=none;endArrow=block;endFill=1;exitX=0.5;exitY=1.05;exitPerimeter=0;entryX=0.5;entryY=-0.05;entryPerimeter=0;lucidId=Uri776r0W75.;" parent="1" source="rD__Bi_7_aJGjnoCtn_X-20" target="rD__Bi_7_aJGjnoCtn_X-21" edge="1">
          <mxGeometry width="100" height="100" relative="1" as="geometry">
            <Array as="points" />
          </mxGeometry>
        </mxCell>
        <mxCell id="rD__Bi_7_aJGjnoCtn_X-29" value="" style="html=1;jettySize=18;whiteSpace=wrap;fontSize=13;strokeColor=#5E5E5E;strokeWidth=1.5;rounded=1;arcSize=12;edgeStyle=orthogonalEdgeStyle;startArrow=none;endArrow=block;endFill=1;exitX=0.5;exitY=1.05;exitPerimeter=0;entryX=0.5;entryY=-0.05;entryPerimeter=0;lucidId=jsi7D1w7isp8;" parent="1" source="rD__Bi_7_aJGjnoCtn_X-9" target="rD__Bi_7_aJGjnoCtn_X-22" edge="1">
          <mxGeometry width="100" height="100" relative="1" as="geometry">
            <Array as="points" />
          </mxGeometry>
        </mxCell>
        <mxCell id="rD__Bi_7_aJGjnoCtn_X-30" value="Realização de Backup automático de servidores e sistemas semanal" style="html=1;overflow=block;blockSpacing=1;whiteSpace=wrap;fontSize=13.5;align=center;spacing=3.8;strokeColor=#3a414a;strokeOpacity=100;fillOpacity=100;rounded=1;absoluteArcSize=1;arcSize=12;fillColor=#ffffff;strokeWidth=1.5;" parent="1" vertex="1">
          <mxGeometry x="-1600" y="-1225" width="130" height="98" as="geometry" />
        </mxCell>
        <mxCell id="rD__Bi_7_aJGjnoCtn_X-31" value="Criptografia AES-256" style="html=1;overflow=block;blockSpacing=1;whiteSpace=wrap;shape=mxgraph.bpmn.shape;verticalLabelPosition=bottom;verticalAlign=top;outline=end;fontSize=13.5;align=center;spacing=0;strokeColor=#3a414a;strokeOpacity=100;fillOpacity=100;rounded=1;absoluteArcSize=1;arcSize=12;fillColor=#ffffff;strokeWidth=1.5;" parent="1" vertex="1">
          <mxGeometry x="-1557" y="-1045" width="45" height="45" as="geometry" />
        </mxCell>
        <mxCell id="rD__Bi_7_aJGjnoCtn_X-32" value="Teste de recuperação mensalmente" style="html=1;overflow=block;blockSpacing=1;whiteSpace=wrap;fontSize=13.5;align=center;spacing=3.8;strokeColor=#3a414a;strokeOpacity=100;fillOpacity=100;rounded=1;absoluteArcSize=1;arcSize=12;fillColor=#ffffff;strokeWidth=1.5;" parent="1" vertex="1">
          <mxGeometry x="-1590" y="-670" width="120" height="90" as="geometry" />
        </mxCell>
        <mxCell id="rD__Bi_7_aJGjnoCtn_X-33" value="" style="html=1;jettySize=18;whiteSpace=wrap;fontSize=13;strokeColor=#5E5E5E;strokeWidth=1.5;rounded=1;arcSize=12;edgeStyle=orthogonalEdgeStyle;startArrow=none;endArrow=block;endFill=1;exitX=1.05;exitY=0.5;exitPerimeter=0;entryX=1.006;entryY=0.5;entryPerimeter=0;lucidId=zvi7NfOaGzyh;" parent="1" source="rD__Bi_7_aJGjnoCtn_X-31" target="rD__Bi_7_aJGjnoCtn_X-66" edge="1">
          <mxGeometry width="100" height="100" relative="1" as="geometry">
            <Array as="points">
              <mxPoint x="-1452" y="-1022" />
              <mxPoint x="-1452" y="-880" />
            </Array>
          </mxGeometry>
        </mxCell>
        <mxCell id="rD__Bi_7_aJGjnoCtn_X-34" value="" style="html=1;jettySize=18;whiteSpace=wrap;fontSize=13;strokeColor=#5E5E5E;strokeWidth=1.5;rounded=1;arcSize=12;edgeStyle=orthogonalEdgeStyle;startArrow=none;endArrow=block;endFill=1;exitX=0.5;exitY=1.025;exitPerimeter=0;entryX=0.5;entryY=-0.008;entryPerimeter=0;lucidId=Hvi7lHUSgAR8;" parent="1" source="rD__Bi_7_aJGjnoCtn_X-11" target="rD__Bi_7_aJGjnoCtn_X-30" edge="1">
          <mxGeometry width="100" height="100" relative="1" as="geometry">
            <Array as="points" />
          </mxGeometry>
        </mxCell>
        <mxCell id="rD__Bi_7_aJGjnoCtn_X-77" style="edgeStyle=orthogonalEdgeStyle;rounded=0;orthogonalLoop=1;jettySize=auto;html=1;exitX=0.5;exitY=1;exitDx=0;exitDy=0;entryX=0.5;entryY=0;entryDx=0;entryDy=0;" parent="1" source="rD__Bi_7_aJGjnoCtn_X-35" target="rD__Bi_7_aJGjnoCtn_X-36" edge="1">
          <mxGeometry relative="1" as="geometry" />
        </mxCell>
        <mxCell id="rD__Bi_7_aJGjnoCtn_X-78" style="edgeStyle=orthogonalEdgeStyle;rounded=0;orthogonalLoop=1;jettySize=auto;html=1;exitX=0.5;exitY=1;exitDx=0;exitDy=0;" parent="1" source="rD__Bi_7_aJGjnoCtn_X-35" target="rD__Bi_7_aJGjnoCtn_X-75" edge="1">
          <mxGeometry relative="1" as="geometry">
            <Array as="points">
              <mxPoint x="-897" y="-940" />
              <mxPoint x="-240" y="-940" />
            </Array>
          </mxGeometry>
        </mxCell>
        <mxCell id="rD__Bi_7_aJGjnoCtn_X-100" style="edgeStyle=orthogonalEdgeStyle;rounded=0;orthogonalLoop=1;jettySize=auto;html=1;exitX=0.5;exitY=1;exitDx=0;exitDy=0;entryX=0.5;entryY=0;entryDx=0;entryDy=0;" parent="1" source="rD__Bi_7_aJGjnoCtn_X-35" target="rD__Bi_7_aJGjnoCtn_X-38" edge="1">
          <mxGeometry relative="1" as="geometry">
            <Array as="points">
              <mxPoint x="-897" y="-940" />
              <mxPoint x="-520" y="-940" />
            </Array>
          </mxGeometry>
        </mxCell>
        <mxCell id="rD__Bi_7_aJGjnoCtn_X-35" value="Gravidade" style="html=1;overflow=block;blockSpacing=1;whiteSpace=wrap;fontSize=13.5;align=center;spacing=3.8;strokeColor=#3a414a;strokeOpacity=100;fillOpacity=100;rounded=1;absoluteArcSize=1;arcSize=12;fillColor=#ffffff;strokeWidth=1.5;" parent="1" vertex="1">
          <mxGeometry x="-957" y="-1117" width="120" height="107" as="geometry" />
        </mxCell>
        <mxCell id="rD__Bi_7_aJGjnoCtn_X-80" style="edgeStyle=orthogonalEdgeStyle;rounded=0;orthogonalLoop=1;jettySize=auto;html=1;exitX=0;exitY=0.5;exitDx=0;exitDy=0;" parent="1" source="rD__Bi_7_aJGjnoCtn_X-36" target="rD__Bi_7_aJGjnoCtn_X-42" edge="1">
          <mxGeometry relative="1" as="geometry" />
        </mxCell>
        <mxCell id="rD__Bi_7_aJGjnoCtn_X-81" style="edgeStyle=orthogonalEdgeStyle;rounded=0;orthogonalLoop=1;jettySize=auto;html=1;entryX=0.5;entryY=0;entryDx=0;entryDy=0;exitX=0;exitY=0.75;exitDx=0;exitDy=0;" parent="1" source="rD__Bi_7_aJGjnoCtn_X-36" target="rD__Bi_7_aJGjnoCtn_X-79" edge="1">
          <mxGeometry relative="1" as="geometry">
            <mxPoint x="-1040" y="-830" as="sourcePoint" />
          </mxGeometry>
        </mxCell>
        <mxCell id="rD__Bi_7_aJGjnoCtn_X-85" style="edgeStyle=orthogonalEdgeStyle;rounded=0;orthogonalLoop=1;jettySize=auto;html=1;exitX=0.5;exitY=1;exitDx=0;exitDy=0;" parent="1" source="rD__Bi_7_aJGjnoCtn_X-36" target="rD__Bi_7_aJGjnoCtn_X-82" edge="1">
          <mxGeometry relative="1" as="geometry">
            <Array as="points">
              <mxPoint x="-1040" y="-770" />
              <mxPoint x="-1040" y="-770" />
            </Array>
          </mxGeometry>
        </mxCell>
        <mxCell id="rD__Bi_7_aJGjnoCtn_X-86" style="edgeStyle=orthogonalEdgeStyle;rounded=0;orthogonalLoop=1;jettySize=auto;html=1;exitX=1;exitY=0.5;exitDx=0;exitDy=0;entryX=0.5;entryY=0;entryDx=0;entryDy=0;" parent="1" source="rD__Bi_7_aJGjnoCtn_X-36" target="rD__Bi_7_aJGjnoCtn_X-84" edge="1">
          <mxGeometry relative="1" as="geometry" />
        </mxCell>
        <mxCell id="rD__Bi_7_aJGjnoCtn_X-88" style="edgeStyle=orthogonalEdgeStyle;rounded=0;orthogonalLoop=1;jettySize=auto;html=1;exitX=1;exitY=0.75;exitDx=0;exitDy=0;entryX=0.5;entryY=0;entryDx=0;entryDy=0;" parent="1" source="rD__Bi_7_aJGjnoCtn_X-36" target="rD__Bi_7_aJGjnoCtn_X-83" edge="1">
          <mxGeometry relative="1" as="geometry" />
        </mxCell>
        <mxCell id="rD__Bi_7_aJGjnoCtn_X-36" value="Crítico" style="html=1;overflow=block;blockSpacing=1;shape=ext;dashed=1;dashPattern=2 5;whiteSpace=wrap;fontSize=13.5;align=center;spacing=3.8;strokeColor=#3a414a;strokeOpacity=100;fillOpacity=100;rounded=1;absoluteArcSize=1;arcSize=12;fillColor=#ffffff;strokeWidth=1.5;" parent="1" vertex="1">
          <mxGeometry x="-1070" y="-870" width="60" height="36" as="geometry" />
        </mxCell>
        <mxCell id="rD__Bi_7_aJGjnoCtn_X-91" style="edgeStyle=orthogonalEdgeStyle;rounded=0;orthogonalLoop=1;jettySize=auto;html=1;exitX=0.5;exitY=1;exitDx=0;exitDy=0;" parent="1" source="rD__Bi_7_aJGjnoCtn_X-38" target="rD__Bi_7_aJGjnoCtn_X-90" edge="1">
          <mxGeometry relative="1" as="geometry" />
        </mxCell>
        <mxCell id="rD__Bi_7_aJGjnoCtn_X-92" style="edgeStyle=orthogonalEdgeStyle;rounded=0;orthogonalLoop=1;jettySize=auto;html=1;exitX=0.5;exitY=1;exitDx=0;exitDy=0;entryX=0.5;entryY=0;entryDx=0;entryDy=0;" parent="1" source="rD__Bi_7_aJGjnoCtn_X-38" target="rD__Bi_7_aJGjnoCtn_X-40" edge="1">
          <mxGeometry relative="1" as="geometry" />
        </mxCell>
        <mxCell id="rD__Bi_7_aJGjnoCtn_X-38" value="Médio" style="html=1;overflow=block;blockSpacing=1;shape=ext;dashed=1;dashPattern=2 5;whiteSpace=wrap;fontSize=13.5;align=center;spacing=3.8;strokeColor=#3a414a;strokeOpacity=100;fillOpacity=100;rounded=1;absoluteArcSize=1;arcSize=12;fillColor=#ffffff;strokeWidth=1.5;" parent="1" vertex="1">
          <mxGeometry x="-550" y="-863" width="60" height="36" as="geometry" />
        </mxCell>
        <mxCell id="rD__Bi_7_aJGjnoCtn_X-104" style="edgeStyle=orthogonalEdgeStyle;rounded=0;orthogonalLoop=1;jettySize=auto;html=1;exitX=1;exitY=0.5;exitDx=0;exitDy=0;" parent="1" source="rD__Bi_7_aJGjnoCtn_X-40" edge="1">
          <mxGeometry relative="1" as="geometry">
            <mxPoint x="-519.9999999999991" y="-323" as="targetPoint" />
          </mxGeometry>
        </mxCell>
        <mxCell id="rD__Bi_7_aJGjnoCtn_X-40" value="Verificar se houve efetivo comprometimento" style="html=1;overflow=block;blockSpacing=1;whiteSpace=wrap;fontSize=13.5;align=center;spacing=3.8;strokeColor=#3a414a;strokeOpacity=100;fillOpacity=100;rounded=1;absoluteArcSize=1;arcSize=12;fillColor=#ffffff;strokeWidth=1.5;" parent="1" vertex="1">
          <mxGeometry x="-688" y="-457" width="120" height="107" as="geometry" />
        </mxCell>
        <mxCell id="rD__Bi_7_aJGjnoCtn_X-95" style="edgeStyle=orthogonalEdgeStyle;rounded=0;orthogonalLoop=1;jettySize=auto;html=1;exitX=0.5;exitY=1;exitDx=0;exitDy=0;entryX=0;entryY=0.75;entryDx=0;entryDy=0;" parent="1" source="rD__Bi_7_aJGjnoCtn_X-42" target="rD__Bi_7_aJGjnoCtn_X-44" edge="1">
          <mxGeometry relative="1" as="geometry" />
        </mxCell>
        <mxCell id="rD__Bi_7_aJGjnoCtn_X-42" value="Isola Sistema" style="html=1;overflow=block;blockSpacing=1;whiteSpace=wrap;fontSize=13.5;align=center;spacing=3.8;strokeColor=#3a414a;strokeOpacity=100;fillOpacity=100;rounded=1;absoluteArcSize=1;arcSize=12;fillColor=#ffffff;strokeWidth=1.5;" parent="1" vertex="1">
          <mxGeometry x="-1390" y="-620" width="120" height="107" as="geometry" />
        </mxCell>
        <mxCell id="rD__Bi_7_aJGjnoCtn_X-113" style="edgeStyle=orthogonalEdgeStyle;rounded=0;orthogonalLoop=1;jettySize=auto;html=1;exitX=0.5;exitY=1;exitDx=0;exitDy=0;entryX=0;entryY=0.75;entryDx=0;entryDy=0;" parent="1" source="rD__Bi_7_aJGjnoCtn_X-44" target="rD__Bi_7_aJGjnoCtn_X-111" edge="1">
          <mxGeometry relative="1" as="geometry" />
        </mxCell>
        <mxCell id="rD__Bi_7_aJGjnoCtn_X-44" value="Relatório pós-incidente" style="html=1;overflow=block;blockSpacing=1;whiteSpace=wrap;fontSize=13.5;align=center;spacing=3.8;strokeColor=#3a414a;strokeOpacity=100;fillOpacity=100;rounded=1;absoluteArcSize=1;arcSize=12;fillColor=#ffffff;strokeWidth=1.5;" parent="1" vertex="1">
          <mxGeometry x="-1100" y="-430" width="120" height="107" as="geometry" />
        </mxCell>
        <mxCell id="rD__Bi_7_aJGjnoCtn_X-46" value="Crachá RFID" style="html=1;overflow=block;blockSpacing=1;whiteSpace=wrap;fontSize=13.5;align=center;spacing=3.8;strokeColor=#3a414a;strokeOpacity=100;fillOpacity=100;rounded=1;absoluteArcSize=1;arcSize=12;fillColor=#ffffff;strokeWidth=1.5;" parent="1" vertex="1">
          <mxGeometry x="-110" y="-1245.5" width="120" height="90" as="geometry" />
        </mxCell>
        <mxCell id="rD__Bi_7_aJGjnoCtn_X-47" value="Validação automática" style="html=1;overflow=block;blockSpacing=1;whiteSpace=wrap;shape=mxgraph.bpmn.shape;verticalLabelPosition=bottom;verticalAlign=top;outline=end;fontSize=13.5;align=center;spacing=0;strokeColor=#3a414a;strokeOpacity=100;fillOpacity=100;rounded=1;absoluteArcSize=1;arcSize=12;fillColor=#ffffff;strokeWidth=1.5;" parent="1" vertex="1">
          <mxGeometry x="-72" y="-1099.5" width="45" height="45" as="geometry" />
        </mxCell>
        <mxCell id="rD__Bi_7_aJGjnoCtn_X-48" value="" style="html=1;jettySize=18;whiteSpace=wrap;fontSize=13;strokeColor=#5E5E5E;strokeWidth=1.5;rounded=1;arcSize=12;edgeStyle=orthogonalEdgeStyle;startArrow=none;endArrow=block;endFill=1;exitX=0.5;exitY=1;exitPerimeter=0;entryX=0.5;entryY=-0.05;entryPerimeter=0;lucidId=tCi74.-eWCWQ;" parent="1" source="rD__Bi_7_aJGjnoCtn_X-46" target="rD__Bi_7_aJGjnoCtn_X-47" edge="1">
          <mxGeometry width="100" height="100" relative="1" as="geometry">
            <Array as="points" />
          </mxGeometry>
        </mxCell>
        <mxCell id="rD__Bi_7_aJGjnoCtn_X-49" value="" style="html=1;jettySize=18;whiteSpace=wrap;fontSize=13;strokeColor=#5E5E5E;strokeWidth=1.5;rounded=1;arcSize=12;edgeStyle=orthogonalEdgeStyle;startArrow=none;endArrow=block;endFill=1;exitX=0.5;exitY=1.05;exitPerimeter=0;entryX=0.5;entryY=0;entryPerimeter=0;lucidId=wCi73nZ9If8Q;" parent="1" source="rD__Bi_7_aJGjnoCtn_X-15" target="rD__Bi_7_aJGjnoCtn_X-46" edge="1">
          <mxGeometry width="100" height="100" relative="1" as="geometry">
            <Array as="points" />
          </mxGeometry>
        </mxCell>
        <mxCell id="rD__Bi_7_aJGjnoCtn_X-50" value="Processos Propostos" style="html=1;overflow=block;blockSpacing=1;whiteSpace=wrap;fontSize=16.7;spacing=0;strokeOpacity=100;rounded=1;absoluteArcSize=1;arcSize=9;strokeWidth=NaN;lucidId=.Rn7T_qeF7R_;fillColor=#f5f5f5;fontColor=#333333;strokeColor=#666666;" parent="1" vertex="1">
          <mxGeometry x="-942" y="-1710" width="180" height="45" as="geometry" />
        </mxCell>
        <mxCell id="rD__Bi_7_aJGjnoCtn_X-51" value="Criar Usuário no AD" style="html=1;overflow=block;blockSpacing=1;whiteSpace=wrap;fontSize=13.5;align=center;spacing=3.8;strokeColor=#3a414a;strokeOpacity=100;fillOpacity=100;rounded=1;absoluteArcSize=1;arcSize=12;fillColor=#ffffff;strokeWidth=1.5;" parent="1" vertex="1">
          <mxGeometry x="-1957" y="-940" width="105" height="60" as="geometry" />
        </mxCell>
        <mxCell id="rD__Bi_7_aJGjnoCtn_X-117" style="edgeStyle=orthogonalEdgeStyle;rounded=0;orthogonalLoop=1;jettySize=auto;html=1;exitX=1;exitY=1;exitDx=0;exitDy=0;entryX=1;entryY=0.5;entryDx=0;entryDy=0;" parent="1" source="rD__Bi_7_aJGjnoCtn_X-52" target="rD__Bi_7_aJGjnoCtn_X-46" edge="1">
          <mxGeometry relative="1" as="geometry">
            <Array as="points">
              <mxPoint x="-1844" y="-60" />
              <mxPoint x="80" y="-60" />
              <mxPoint x="80" y="-1200" />
            </Array>
          </mxGeometry>
        </mxCell>
        <mxCell id="rD__Bi_7_aJGjnoCtn_X-52" value="Cria login nos sistemas " style="html=1;overflow=block;blockSpacing=1;whiteSpace=wrap;fontSize=13.5;align=center;spacing=3.8;strokeColor=#3a414a;strokeOpacity=100;fillOpacity=100;rounded=1;absoluteArcSize=1;arcSize=12;fillColor=#ffffff;strokeWidth=1.5;" parent="1" vertex="1">
          <mxGeometry x="-1964" y="-835" width="120" height="90" as="geometry" />
        </mxCell>
        <mxCell id="rD__Bi_7_aJGjnoCtn_X-53" value="" style="html=1;jettySize=18;whiteSpace=wrap;fontSize=13;strokeColor=#5E5E5E;strokeWidth=1.5;rounded=1;arcSize=12;edgeStyle=orthogonalEdgeStyle;startArrow=none;endArrow=block;endFill=1;exitX=0.5;exitY=1;exitPerimeter=0;entryX=0.5;entryY=0;entryPerimeter=0;lucidId=aV-8qqGvgJX_;" parent="1" source="rD__Bi_7_aJGjnoCtn_X-51" target="rD__Bi_7_aJGjnoCtn_X-52" edge="1">
          <mxGeometry width="100" height="100" relative="1" as="geometry">
            <Array as="points" />
          </mxGeometry>
        </mxCell>
        <mxCell id="rD__Bi_7_aJGjnoCtn_X-54" value="Faz a requisição do e-mail institucional " style="html=1;overflow=block;blockSpacing=1;whiteSpace=wrap;fontSize=13.5;align=center;spacing=3.8;strokeColor=#3a414a;strokeOpacity=100;fillOpacity=100;rounded=1;absoluteArcSize=1;arcSize=12;fillColor=#ffffff;strokeWidth=1.5;" parent="1" vertex="1">
          <mxGeometry x="-2092" y="-940" width="118" height="67" as="geometry" />
        </mxCell>
        <mxCell id="rD__Bi_7_aJGjnoCtn_X-55" value="" style="html=1;jettySize=18;whiteSpace=wrap;fontSize=13;strokeColor=#5E5E5E;strokeWidth=1.5;rounded=1;arcSize=12;edgeStyle=orthogonalEdgeStyle;startArrow=none;endArrow=block;endFill=1;exitX=0;exitY=0.5;exitPerimeter=0;entryX=0.5;entryY=0;entryPerimeter=0;lucidId=P0-8dCz11yLC;" parent="1" source="rD__Bi_7_aJGjnoCtn_X-19" target="rD__Bi_7_aJGjnoCtn_X-54" edge="1">
          <mxGeometry width="100" height="100" relative="1" as="geometry">
            <Array as="points" />
          </mxGeometry>
        </mxCell>
        <mxCell id="rD__Bi_7_aJGjnoCtn_X-56" value="Informa ao usuário" style="html=1;overflow=block;blockSpacing=1;whiteSpace=wrap;fontSize=13.5;align=center;spacing=3.8;strokeColor=#3a414a;strokeOpacity=100;fillOpacity=100;rounded=1;absoluteArcSize=1;arcSize=12;fillColor=#ffffff;strokeWidth=1.5;" parent="1" vertex="1">
          <mxGeometry x="-2210" y="-820" width="118" height="67" as="geometry" />
        </mxCell>
        <mxCell id="rD__Bi_7_aJGjnoCtn_X-57" value="" style="html=1;jettySize=18;whiteSpace=wrap;fontSize=13;strokeColor=#5E5E5E;strokeWidth=1.5;rounded=1;arcSize=12;edgeStyle=orthogonalEdgeStyle;startArrow=none;endArrow=block;endFill=1;exitX=0;exitY=0.5;exitPerimeter=0;entryX=0.5;entryY=0;entryPerimeter=0;lucidId=J1-8HkK~47jR;" parent="1" source="rD__Bi_7_aJGjnoCtn_X-54" target="rD__Bi_7_aJGjnoCtn_X-56" edge="1">
          <mxGeometry width="100" height="100" relative="1" as="geometry">
            <Array as="points" />
          </mxGeometry>
        </mxCell>
        <mxCell id="rD__Bi_7_aJGjnoCtn_X-58" value="" style="html=1;jettySize=18;whiteSpace=wrap;fontSize=13;strokeColor=#5E5E5E;strokeWidth=1.5;rounded=1;arcSize=12;edgeStyle=orthogonalEdgeStyle;startArrow=none;endArrow=block;endFill=1;exitX=0;exitY=0.5;exitPerimeter=0;entryX=1;entryY=0.45;entryPerimeter=0;lucidId=M1-8W-cdV8Ct;" parent="1" source="rD__Bi_7_aJGjnoCtn_X-52" target="rD__Bi_7_aJGjnoCtn_X-56" edge="1">
          <mxGeometry width="100" height="100" relative="1" as="geometry">
            <Array as="points" />
          </mxGeometry>
        </mxCell>
        <mxCell id="rD__Bi_7_aJGjnoCtn_X-59" value="&lt;div align=&quot;center&quot;&gt;Sincroniza as senhas e MFA&lt;/div&gt;" style="html=1;overflow=block;blockSpacing=1;whiteSpace=wrap;shape=mxgraph.bpmn.shape;verticalLabelPosition=bottom;verticalAlign=top;outline=end;fontSize=13.5;align=center;spacing=0;strokeColor=#3a414a;strokeOpacity=100;fillOpacity=100;rounded=1;absoluteArcSize=1;arcSize=12;fillColor=#ffffff;strokeWidth=1.5;" parent="1" vertex="1">
          <mxGeometry x="-2047" y="-715" width="45" height="45" as="geometry" />
        </mxCell>
        <mxCell id="rD__Bi_7_aJGjnoCtn_X-60" value="" style="html=1;jettySize=18;whiteSpace=wrap;fontSize=13;strokeColor=#5E5E5E;strokeWidth=1.5;rounded=1;arcSize=12;edgeStyle=orthogonalEdgeStyle;startArrow=none;endArrow=block;endFill=1;exitX=0.5;exitY=1.011;exitPerimeter=0;entryX=0;entryY=0.5;entryPerimeter=0;lucidId=42-87yBbKyxk;" parent="1" source="rD__Bi_7_aJGjnoCtn_X-56" target="rD__Bi_7_aJGjnoCtn_X-59" edge="1">
          <mxGeometry width="100" height="100" relative="1" as="geometry">
            <Array as="points" />
          </mxGeometry>
        </mxCell>
        <mxCell id="rD__Bi_7_aJGjnoCtn_X-61" value="" style="html=1;jettySize=18;whiteSpace=wrap;fontSize=13;strokeColor=#5E5E5E;strokeWidth=1.5;rounded=1;arcSize=12;edgeStyle=orthogonalEdgeStyle;startArrow=none;endArrow=block;endFill=1;exitX=0.5;exitY=1.008;exitPerimeter=0;entryX=1;entryY=0.5;entryPerimeter=0;lucidId=82-8FFXXsl-n;" parent="1" source="rD__Bi_7_aJGjnoCtn_X-52" target="rD__Bi_7_aJGjnoCtn_X-59" edge="1">
          <mxGeometry width="100" height="100" relative="1" as="geometry">
            <Array as="points" />
          </mxGeometry>
        </mxCell>
        <mxCell id="rD__Bi_7_aJGjnoCtn_X-62" value="Cria pasta na rede para o usuário" style="html=1;overflow=block;blockSpacing=1;whiteSpace=wrap;fontSize=13.5;align=center;spacing=3.8;strokeColor=#3a414a;strokeOpacity=100;fillOpacity=100;rounded=1;absoluteArcSize=1;arcSize=12;fillColor=#ffffff;strokeWidth=1.5;" parent="1" vertex="1">
          <mxGeometry x="-1788" y="-753" width="120" height="90" as="geometry" />
        </mxCell>
        <mxCell id="rD__Bi_7_aJGjnoCtn_X-63" value="" style="html=1;jettySize=18;whiteSpace=wrap;fontSize=13;strokeColor=#5E5E5E;strokeWidth=1.5;rounded=1;arcSize=12;edgeStyle=orthogonalEdgeStyle;startArrow=none;endArrow=block;endFill=1;exitX=1.007;exitY=0.5;exitPerimeter=0;entryX=-0.006;entryY=0.5;entryPerimeter=0;lucidId=k4-8.xfHZgtB;" parent="1" source="rD__Bi_7_aJGjnoCtn_X-51" target="rD__Bi_7_aJGjnoCtn_X-62" edge="1">
          <mxGeometry width="100" height="100" relative="1" as="geometry">
            <Array as="points" />
          </mxGeometry>
        </mxCell>
        <mxCell id="rD__Bi_7_aJGjnoCtn_X-64" value="" style="html=1;jettySize=18;whiteSpace=wrap;fontSize=13;strokeColor=#5E5E5E;strokeWidth=1.5;rounded=1;arcSize=12;edgeStyle=orthogonalEdgeStyle;startArrow=none;endArrow=block;endFill=1;exitX=1.006;exitY=0.5;exitPerimeter=0;entryX=-0.006;entryY=0.5;entryPerimeter=0;lucidId=M8-8b17On3F0;" parent="1" source="rD__Bi_7_aJGjnoCtn_X-62" target="rD__Bi_7_aJGjnoCtn_X-30" edge="1">
          <mxGeometry width="100" height="100" relative="1" as="geometry">
            <Array as="points" />
          </mxGeometry>
        </mxCell>
        <mxCell id="rD__Bi_7_aJGjnoCtn_X-65" value="" style="html=1;jettySize=18;whiteSpace=wrap;fontSize=13;strokeColor=#5E5E5E;strokeWidth=1.5;rounded=1;arcSize=12;edgeStyle=orthogonalEdgeStyle;startArrow=none;endArrow=block;endFill=1;exitX=0.5;exitY=1;exitPerimeter=0;entryX=0.5;entryY=-0.05;entryPerimeter=0;lucidId=9--8DnS~~Qbv;" parent="1" source="rD__Bi_7_aJGjnoCtn_X-30" target="rD__Bi_7_aJGjnoCtn_X-31" edge="1">
          <mxGeometry width="100" height="100" relative="1" as="geometry">
            <Array as="points" />
          </mxGeometry>
        </mxCell>
        <mxCell id="rD__Bi_7_aJGjnoCtn_X-66" value="Armazena uma copia local e outra em nuvem" style="html=1;overflow=block;blockSpacing=1;whiteSpace=wrap;fontSize=13.5;align=center;spacing=3.8;strokeColor=#3a414a;strokeOpacity=100;fillOpacity=100;rounded=1;absoluteArcSize=1;arcSize=12;fillColor=#ffffff;strokeWidth=1.5;" parent="1" vertex="1">
          <mxGeometry x="-1590" y="-925" width="120" height="90" as="geometry" />
        </mxCell>
        <mxCell id="rD__Bi_7_aJGjnoCtn_X-67" value="" style="html=1;jettySize=18;whiteSpace=wrap;fontSize=13;strokeColor=#5E5E5E;strokeWidth=1.5;rounded=1;arcSize=12;edgeStyle=orthogonalEdgeStyle;startArrow=none;endArrow=block;endFill=1;exitX=0.5;exitY=1;exitPerimeter=0;entryX=0.5;entryY=0;entryPerimeter=0;lucidId=C.-8Ept5thrP;" parent="1" source="rD__Bi_7_aJGjnoCtn_X-66" target="rD__Bi_7_aJGjnoCtn_X-32" edge="1">
          <mxGeometry width="100" height="100" relative="1" as="geometry">
            <Array as="points" />
          </mxGeometry>
        </mxCell>
        <mxCell id="rD__Bi_7_aJGjnoCtn_X-68" value="Incidente detectado" style="html=1;overflow=block;blockSpacing=1;whiteSpace=wrap;shape=mxgraph.bpmn.shape;verticalLabelPosition=bottom;verticalAlign=top;outline=end;fontSize=13.5;align=center;spacing=0;strokeColor=#3a414a;strokeOpacity=100;fillOpacity=100;rounded=1;absoluteArcSize=1;arcSize=12;fillColor=#ffffff;strokeWidth=1.5;" parent="1" vertex="1">
          <mxGeometry x="-919.5" y="-1367" width="45" height="54" as="geometry" />
        </mxCell>
        <mxCell id="rD__Bi_7_aJGjnoCtn_X-70" value="" style="html=1;jettySize=18;whiteSpace=wrap;fontSize=13;strokeColor=#5E5E5E;strokeWidth=1.5;rounded=1;arcSize=12;edgeStyle=orthogonalEdgeStyle;startArrow=none;endArrow=block;endFill=1;exitX=-0.05;exitY=0.5;exitPerimeter=0;entryX=-0.006;entryY=0.5;entryPerimeter=0;lucidId=O~-8GXl4rpnG;" parent="1" source="rD__Bi_7_aJGjnoCtn_X-68" target="rD__Bi_7_aJGjnoCtn_X-71" edge="1">
          <mxGeometry width="100" height="100" relative="1" as="geometry">
            <Array as="points">
              <mxPoint x="-1020" y="-1340" />
              <mxPoint x="-1020" y="-1213" />
            </Array>
          </mxGeometry>
        </mxCell>
        <mxCell id="rD__Bi_7_aJGjnoCtn_X-74" style="edgeStyle=orthogonalEdgeStyle;rounded=0;orthogonalLoop=1;jettySize=auto;html=1;exitX=0;exitY=0.75;exitDx=0;exitDy=0;entryX=0.25;entryY=1;entryDx=0;entryDy=0;" parent="1" source="rD__Bi_7_aJGjnoCtn_X-71" target="rD__Bi_7_aJGjnoCtn_X-56" edge="1">
          <mxGeometry relative="1" as="geometry">
            <Array as="points">
              <mxPoint x="-1017" y="-1186" />
              <mxPoint x="-1017" y="-982" />
              <mxPoint x="-1420" y="-982" />
              <mxPoint x="-1420" y="-550" />
              <mxPoint x="-2180" y="-550" />
              <mxPoint x="-2180" y="-753" />
            </Array>
          </mxGeometry>
        </mxCell>
        <mxCell id="rD__Bi_7_aJGjnoCtn_X-71" value="Comunica todas as equipes de TI" style="html=1;overflow=block;blockSpacing=1;whiteSpace=wrap;fontSize=13.5;align=center;spacing=3.8;strokeColor=#3a414a;strokeOpacity=100;fillOpacity=100;rounded=1;absoluteArcSize=1;arcSize=12;fillColor=#ffffff;strokeWidth=1.5;" parent="1" vertex="1">
          <mxGeometry x="-957" y="-1266" width="120" height="107" as="geometry" />
        </mxCell>
        <mxCell id="rD__Bi_7_aJGjnoCtn_X-72" value="" style="html=1;jettySize=18;whiteSpace=wrap;fontSize=13;strokeColor=#5E5E5E;strokeWidth=1.5;rounded=1;arcSize=12;edgeStyle=orthogonalEdgeStyle;startArrow=none;endArrow=block;endFill=1;exitX=0.5;exitY=1.007;exitPerimeter=0;entryX=0.5;entryY=-0.007;entryPerimeter=0;lucidId=8a_81ArISmYs;" parent="1" source="rD__Bi_7_aJGjnoCtn_X-71" target="rD__Bi_7_aJGjnoCtn_X-35" edge="1">
          <mxGeometry width="100" height="100" relative="1" as="geometry">
            <Array as="points" />
          </mxGeometry>
        </mxCell>
        <mxCell id="rD__Bi_7_aJGjnoCtn_X-101" style="edgeStyle=orthogonalEdgeStyle;rounded=0;orthogonalLoop=1;jettySize=auto;html=1;exitX=0;exitY=0.5;exitDx=0;exitDy=0;entryX=0.5;entryY=0;entryDx=0;entryDy=0;" parent="1" source="rD__Bi_7_aJGjnoCtn_X-75" target="rD__Bi_7_aJGjnoCtn_X-93" edge="1">
          <mxGeometry relative="1" as="geometry" />
        </mxCell>
        <mxCell id="rD__Bi_7_aJGjnoCtn_X-102" style="edgeStyle=orthogonalEdgeStyle;rounded=0;orthogonalLoop=1;jettySize=auto;html=1;exitX=1;exitY=0.5;exitDx=0;exitDy=0;entryX=0.5;entryY=0;entryDx=0;entryDy=0;" parent="1" source="rD__Bi_7_aJGjnoCtn_X-75" target="rD__Bi_7_aJGjnoCtn_X-94" edge="1">
          <mxGeometry relative="1" as="geometry" />
        </mxCell>
        <mxCell id="rD__Bi_7_aJGjnoCtn_X-75" value="Baixo" style="html=1;overflow=block;blockSpacing=1;shape=ext;dashed=1;dashPattern=2 5;whiteSpace=wrap;fontSize=13.5;align=center;spacing=3.8;strokeColor=#3a414a;strokeOpacity=100;fillOpacity=100;rounded=1;absoluteArcSize=1;arcSize=12;fillColor=#ffffff;strokeWidth=1.5;" parent="1" vertex="1">
          <mxGeometry x="-270" y="-863" width="60" height="36" as="geometry" />
        </mxCell>
        <mxCell id="rD__Bi_7_aJGjnoCtn_X-96" style="edgeStyle=orthogonalEdgeStyle;rounded=0;orthogonalLoop=1;jettySize=auto;html=1;exitX=0.5;exitY=1;exitDx=0;exitDy=0;entryX=0;entryY=0.5;entryDx=0;entryDy=0;" parent="1" source="rD__Bi_7_aJGjnoCtn_X-79" target="rD__Bi_7_aJGjnoCtn_X-44" edge="1">
          <mxGeometry relative="1" as="geometry" />
        </mxCell>
        <mxCell id="rD__Bi_7_aJGjnoCtn_X-79" value="Ativar o plano de resposta a incidentes" style="html=1;overflow=block;blockSpacing=1;whiteSpace=wrap;fontSize=13.5;align=center;spacing=3.8;strokeColor=#3a414a;strokeOpacity=100;fillOpacity=100;rounded=1;absoluteArcSize=1;arcSize=12;fillColor=#ffffff;strokeWidth=1.5;" parent="1" vertex="1">
          <mxGeometry x="-1250" y="-620" width="120" height="107" as="geometry" />
        </mxCell>
        <mxCell id="rD__Bi_7_aJGjnoCtn_X-97" style="edgeStyle=orthogonalEdgeStyle;rounded=0;orthogonalLoop=1;jettySize=auto;html=1;exitX=0.5;exitY=1;exitDx=0;exitDy=0;" parent="1" source="rD__Bi_7_aJGjnoCtn_X-82" target="rD__Bi_7_aJGjnoCtn_X-44" edge="1">
          <mxGeometry relative="1" as="geometry" />
        </mxCell>
        <mxCell id="rD__Bi_7_aJGjnoCtn_X-82" value="Notificar autoridades" style="html=1;overflow=block;blockSpacing=1;whiteSpace=wrap;fontSize=13.5;align=center;spacing=3.8;strokeColor=#3a414a;strokeOpacity=100;fillOpacity=100;rounded=1;absoluteArcSize=1;arcSize=12;fillColor=#ffffff;strokeWidth=1.5;" parent="1" vertex="1">
          <mxGeometry x="-1100" y="-620" width="120" height="107" as="geometry" />
        </mxCell>
        <mxCell id="rD__Bi_7_aJGjnoCtn_X-98" style="edgeStyle=orthogonalEdgeStyle;rounded=0;orthogonalLoop=1;jettySize=auto;html=1;exitX=0.5;exitY=1;exitDx=0;exitDy=0;entryX=1;entryY=0.5;entryDx=0;entryDy=0;" parent="1" source="rD__Bi_7_aJGjnoCtn_X-83" target="rD__Bi_7_aJGjnoCtn_X-44" edge="1">
          <mxGeometry relative="1" as="geometry" />
        </mxCell>
        <mxCell id="rD__Bi_7_aJGjnoCtn_X-83" value="Preservar evidências" style="html=1;overflow=block;blockSpacing=1;whiteSpace=wrap;fontSize=13.5;align=center;spacing=3.8;strokeColor=#3a414a;strokeOpacity=100;fillOpacity=100;rounded=1;absoluteArcSize=1;arcSize=12;fillColor=#ffffff;strokeWidth=1.5;" parent="1" vertex="1">
          <mxGeometry x="-950" y="-620" width="120" height="107" as="geometry" />
        </mxCell>
        <mxCell id="rD__Bi_7_aJGjnoCtn_X-99" style="edgeStyle=orthogonalEdgeStyle;rounded=0;orthogonalLoop=1;jettySize=auto;html=1;exitX=0.5;exitY=1;exitDx=0;exitDy=0;entryX=1;entryY=0.75;entryDx=0;entryDy=0;" parent="1" source="rD__Bi_7_aJGjnoCtn_X-84" target="rD__Bi_7_aJGjnoCtn_X-44" edge="1">
          <mxGeometry relative="1" as="geometry" />
        </mxCell>
        <mxCell id="rD__Bi_7_aJGjnoCtn_X-84" value="Comunicar-se com stakeholders" style="html=1;overflow=block;blockSpacing=1;whiteSpace=wrap;fontSize=13.5;align=center;spacing=3.8;strokeColor=#3a414a;strokeOpacity=100;fillOpacity=100;rounded=1;absoluteArcSize=1;arcSize=12;fillColor=#ffffff;strokeWidth=1.5;" parent="1" vertex="1">
          <mxGeometry x="-800" y="-620" width="120" height="107" as="geometry" />
        </mxCell>
        <mxCell id="rD__Bi_7_aJGjnoCtn_X-106" style="edgeStyle=orthogonalEdgeStyle;rounded=0;orthogonalLoop=1;jettySize=auto;html=1;exitX=0;exitY=0.5;exitDx=0;exitDy=0;" parent="1" source="rD__Bi_7_aJGjnoCtn_X-90" edge="1">
          <mxGeometry relative="1" as="geometry">
            <mxPoint x="-519.9999999999991" y="-323" as="targetPoint" />
          </mxGeometry>
        </mxCell>
        <mxCell id="rD__Bi_7_aJGjnoCtn_X-90" value="Corrigir vulnerabilidades " style="html=1;overflow=block;blockSpacing=1;whiteSpace=wrap;fontSize=13.5;align=center;spacing=3.8;strokeColor=#3a414a;strokeOpacity=100;fillOpacity=100;rounded=1;absoluteArcSize=1;arcSize=12;fillColor=#ffffff;strokeWidth=1.5;" parent="1" vertex="1">
          <mxGeometry x="-472" y="-457" width="120" height="107" as="geometry" />
        </mxCell>
        <mxCell id="rD__Bi_7_aJGjnoCtn_X-108" style="edgeStyle=orthogonalEdgeStyle;rounded=0;orthogonalLoop=1;jettySize=auto;html=1;exitX=0.5;exitY=1;exitDx=0;exitDy=0;entryX=0;entryY=0.5;entryDx=0;entryDy=0;" parent="1" source="rD__Bi_7_aJGjnoCtn_X-93" target="rD__Bi_7_aJGjnoCtn_X-107" edge="1">
          <mxGeometry relative="1" as="geometry" />
        </mxCell>
        <mxCell id="rD__Bi_7_aJGjnoCtn_X-93" value="Registrar o incidente" style="html=1;overflow=block;blockSpacing=1;whiteSpace=wrap;fontSize=13.5;align=center;spacing=3.8;strokeColor=#3a414a;strokeOpacity=100;fillOpacity=100;rounded=1;absoluteArcSize=1;arcSize=12;fillColor=#ffffff;strokeWidth=1.5;" parent="1" vertex="1">
          <mxGeometry x="-390" y="-780" width="120" height="107" as="geometry" />
        </mxCell>
        <mxCell id="rD__Bi_7_aJGjnoCtn_X-109" style="edgeStyle=orthogonalEdgeStyle;rounded=0;orthogonalLoop=1;jettySize=auto;html=1;exitX=0.5;exitY=1;exitDx=0;exitDy=0;entryX=1;entryY=0.5;entryDx=0;entryDy=0;" parent="1" source="rD__Bi_7_aJGjnoCtn_X-94" target="rD__Bi_7_aJGjnoCtn_X-107" edge="1">
          <mxGeometry relative="1" as="geometry" />
        </mxCell>
        <mxCell id="rD__Bi_7_aJGjnoCtn_X-94" value="Ajustar ferramentas" style="html=1;overflow=block;blockSpacing=1;whiteSpace=wrap;fontSize=13.5;align=center;spacing=3.8;strokeColor=#3a414a;strokeOpacity=100;fillOpacity=100;rounded=1;absoluteArcSize=1;arcSize=12;fillColor=#ffffff;strokeWidth=1.5;" parent="1" vertex="1">
          <mxGeometry x="-210" y="-780" width="120" height="107" as="geometry" />
        </mxCell>
        <mxCell id="rD__Bi_7_aJGjnoCtn_X-115" style="edgeStyle=orthogonalEdgeStyle;rounded=0;orthogonalLoop=1;jettySize=auto;html=1;exitX=0.5;exitY=1;exitDx=0;exitDy=0;entryX=1;entryY=0.25;entryDx=0;entryDy=0;" parent="1" source="rD__Bi_7_aJGjnoCtn_X-103" target="rD__Bi_7_aJGjnoCtn_X-111" edge="1">
          <mxGeometry relative="1" as="geometry" />
        </mxCell>
        <mxCell id="rD__Bi_7_aJGjnoCtn_X-103" value="Relatório pós-incidente" style="html=1;overflow=block;blockSpacing=1;whiteSpace=wrap;fontSize=13.5;align=center;spacing=3.8;strokeColor=#3a414a;strokeOpacity=100;fillOpacity=100;rounded=1;absoluteArcSize=1;arcSize=12;fillColor=#ffffff;strokeWidth=1.5;" parent="1" vertex="1">
          <mxGeometry x="-580" y="-323" width="120" height="107" as="geometry" />
        </mxCell>
        <mxCell id="rD__Bi_7_aJGjnoCtn_X-112" style="edgeStyle=orthogonalEdgeStyle;rounded=0;orthogonalLoop=1;jettySize=auto;html=1;exitX=0.5;exitY=1;exitDx=0;exitDy=0;entryX=1;entryY=0.75;entryDx=0;entryDy=0;" parent="1" source="rD__Bi_7_aJGjnoCtn_X-107" target="rD__Bi_7_aJGjnoCtn_X-111" edge="1">
          <mxGeometry relative="1" as="geometry" />
        </mxCell>
        <mxCell id="rD__Bi_7_aJGjnoCtn_X-107" value="Relatório pós-incidente" style="html=1;overflow=block;blockSpacing=1;whiteSpace=wrap;fontSize=13.5;align=center;spacing=3.8;strokeColor=#3a414a;strokeOpacity=100;fillOpacity=100;rounded=1;absoluteArcSize=1;arcSize=12;fillColor=#ffffff;strokeWidth=1.5;" parent="1" vertex="1">
          <mxGeometry x="-300" y="-650" width="120" height="107" as="geometry" />
        </mxCell>
        <mxCell id="rD__Bi_7_aJGjnoCtn_X-111" value="TREINAMENTO" style="html=1;overflow=block;blockSpacing=1;whiteSpace=wrap;fontSize=13.5;align=center;spacing=3.8;strokeColor=#3a414a;strokeOpacity=100;fillOpacity=100;rounded=1;absoluteArcSize=1;arcSize=12;fillColor=#ffffff;strokeWidth=1.5;" parent="1" vertex="1">
          <mxGeometry x="-912" y="-216" width="120" height="107" as="geometry" />
        </mxCell>
      </root>
    </mxGraphModel>
  </diagram>
</mxfile>
